<svg width="203.975px" height="96.8px" xmlns="http://www.w3.org/2000/svg" viewBox="148.0125 26.6 203.975 96.8" style="background: rgb(255, 247, 232);" preserveAspectRatio="xMidYMid"><defs><filter id="editing-hole" x="-100%" y="-100%" width="300%" height="300%"><feFlood flood-color="#000000" result="black"></feFlood><feMorphology operator="dilate" radius="2" in="SourceGraphic" result="erode"></feMorphology><feGaussianBlur in="erode" stdDeviation="4" result="blur"></feGaussianBlur><feOffset in="blur" dx="2" dy="2" result="offset"></feOffset><feComposite operator="atop" in="offset" in2="black" result="merge"></feComposite><feComposite operator="in" in="merge" in2="SourceGraphic" result="inner-shadow"></feComposite></filter></defs><g filter="url(#editing-hole)"><g transform="translate(181.68000984191895, 86.34000015258789)"><path d="M6.72-17.76L6.72-17.76Q7.68-19.92 9.46-21.12L9.46-21.12L9.46-21.12Q11.24-22.32 13.80-22.32L13.80-22.32L13.80-18.56L12.84-18.56L12.84-18.56Q6.72-18.56 6.72-11.92L6.72-11.92L6.72 0L3.08 0L3.08-21.92L6.72-21.92L6.72-17.76ZM38-11.88L38-11.88Q38-10.88 37.88-9.72L37.88-9.72L20.36-9.72L20.36-9.72Q20.52-6.48 22.54-4.60L22.54-4.60L22.54-4.60Q24.56-2.72 27.48-2.72L27.48-2.72L27.48-2.72Q29.84-2.72 31.42-3.82L31.42-3.82L31.42-3.82Q33-4.92 33.64-6.76L33.64-6.76L37.56-6.76L37.56-6.76Q36.68-3.60 34.04-1.62L34.04-1.62L34.04-1.62Q31.40 0.36 27.48 0.36L27.48 0.36L27.48 0.36Q24.36 0.36 21.90-1.04L21.90-1.04L21.90-1.04Q19.44-2.44 18.04-5.02L18.04-5.02L18.04-5.02Q16.64-7.60 16.64-11L16.64-11L16.64-11Q16.64-14.40 18-16.96L18-16.96L18-16.96Q19.36-19.52 21.82-20.90L21.82-20.90L21.82-20.90Q24.28-22.28 27.48-22.28L27.48-22.28L27.48-22.28Q30.60-22.28 32.98-20.92L32.98-20.92L32.98-20.92Q35.36-19.56 36.68-17.20L36.68-17.20L36.68-17.20Q38-14.84 38-11.88L38-11.88ZM34.24-12.36L34.24-12.36Q34.24-14.52 33.32-16.06L33.32-16.06L33.32-16.06Q32.40-17.60 30.82-18.40L30.82-18.40L30.82-18.40Q29.24-19.20 27.32-19.20L27.32-19.20L27.32-19.20Q24.52-19.20 22.56-17.38L22.56-17.38L22.56-17.38Q20.60-15.56 20.40-12.36L20.40-12.36L34.24-12.36ZM50.52 0.36L50.52 0.36Q48 0.36 46.02-0.50L46.02-0.50L46.02-0.50Q44.04-1.36 42.88-2.90L42.88-2.90L42.88-2.90Q41.72-4.44 41.60-6.44L41.60-6.44L45.36-6.44L45.36-6.44Q45.52-4.72 46.90-3.64L46.90-3.64L46.90-3.64Q48.28-2.56 50.52-2.56L50.52-2.56L50.52-2.56Q52.64-2.56 53.82-3.50L53.82-3.50L53.82-3.50Q55-4.44 55-5.96L55-5.96L55-5.96Q55-7.40 53.72-8.10L53.72-8.10L53.72-8.10Q52.44-8.80 49.76-9.48L49.76-9.48L49.76-9.48Q47.32-10.12 45.80-10.76L45.80-10.76L45.80-10.76Q44.28-11.40 43.20-12.66L43.20-12.66L43.20-12.66Q42.12-13.92 42.12-16L42.12-16L42.12-16Q42.12-17.72 43.08-19.16L43.08-19.16L43.08-19.16Q44.04-20.60 45.86-21.44L45.86-21.44L45.86-21.44Q47.68-22.28 50.08-22.28L50.08-22.28L50.08-22.28Q53.72-22.28 55.96-20.44L55.96-20.44L55.96-20.44Q58.20-18.60 58.36-15.40L58.36-15.40L54.72-15.40L54.72-15.40Q54.60-17.20 53.34-18.28L53.34-18.28L53.34-18.28Q52.08-19.36 49.96-19.36L49.96-19.36L49.96-19.36Q47.96-19.36 46.82-18.48L46.82-18.48L46.82-18.48Q45.68-17.60 45.68-16.16L45.68-16.16L45.68-16.16Q45.68-15.04 46.40-14.34L46.40-14.34L46.40-14.34Q47.12-13.64 48.16-13.26L48.16-13.26L48.16-13.26Q49.20-12.88 51.12-12.32L51.12-12.32L51.12-12.32Q53.52-11.68 54.96-11.06L54.96-11.06L54.96-11.06Q56.40-10.44 57.44-9.24L57.44-9.24L57.44-9.24Q58.48-8.04 58.48-6.04L58.48-6.04L58.48-6.04Q58.48-4.20 57.50-2.76L57.50-2.76L57.50-2.76Q56.52-1.32 54.72-0.48L54.72-0.48L54.72-0.48Q52.92 0.36 50.52 0.36L50.52 0.36ZM62.32-11L62.32-11Q62.32-14.40 63.68-16.94L63.68-16.94L63.68-16.94Q65.04-19.48 67.46-20.88L67.46-20.88L67.46-20.88Q69.88-22.28 73-22.28L73-22.28L73-22.28Q77.04-22.28 79.66-20.32L79.66-20.32L79.66-20.32Q82.28-18.36 83.12-14.88L83.12-14.88L79.20-14.88L79.20-14.88Q78.64-16.88 77.02-18.04L77.02-18.04L77.02-18.04Q75.40-19.20 73-19.20L73-19.20L73-19.20Q69.88-19.20 67.96-17.06L67.96-17.06L67.96-17.06Q66.04-14.92 66.04-11L66.04-11L66.04-11Q66.04-7.04 67.96-4.88L67.96-4.88L67.96-4.88Q69.88-2.72 73-2.72L73-2.72L73-2.72Q75.40-2.72 77-3.84L77-3.84L77-3.84Q78.60-4.96 79.20-7.04L79.20-7.04L83.12-7.04L83.12-7.04Q82.24-3.68 79.60-1.66L79.60-1.66L79.60-1.66Q76.96 0.36 73 0.36L73 0.36L73 0.36Q69.88 0.36 67.46-1.04L67.46-1.04L67.46-1.04Q65.04-2.44 63.68-5L63.68-5L63.68-5Q62.32-7.56 62.32-11L62.32-11ZM103.76-21.92L107.40-21.92L107.40 0L103.76 0L103.76-3.24L103.76-3.24Q102.72-1.56 100.86-0.62L100.86-0.62L100.86-0.62Q99 0.32 96.76 0.32L96.76 0.32L96.76 0.32Q94.20 0.32 92.16-0.74L92.16-0.74L92.16-0.74Q90.12-1.80 88.94-3.92L88.94-3.92L88.94-3.92Q87.76-6.04 87.76-9.08L87.76-9.08L87.76-21.92L91.36-21.92L91.36-9.56L91.36-9.56Q91.36-6.32 93-4.58L93-4.58L93-4.58Q94.64-2.84 97.48-2.84L97.48-2.84L97.48-2.84Q100.40-2.84 102.08-4.64L102.08-4.64L102.08-4.64Q103.76-6.44 103.76-9.88L103.76-9.88L103.76-21.92ZM133.56-11.88L133.56-11.88Q133.56-10.88 133.44-9.72L133.44-9.72L115.92-9.72L115.92-9.72Q116.08-6.48 118.10-4.60L118.10-4.60L118.10-4.60Q120.12-2.72 123.04-2.72L123.04-2.72L123.04-2.72Q125.40-2.72 126.98-3.82L126.98-3.82L126.98-3.82Q128.56-4.92 129.20-6.76L129.20-6.76L133.12-6.76L133.12-6.76Q132.24-3.60 129.60-1.62L129.60-1.62L129.60-1.62Q126.96 0.36 123.04 0.36L123.04 0.36L123.04 0.36Q119.92 0.36 117.46-1.04L117.46-1.04L117.46-1.04Q115.00-2.44 113.60-5.02L113.60-5.02L113.60-5.02Q112.20-7.60 112.20-11L112.20-11L112.20-11Q112.20-14.40 113.56-16.96L113.56-16.96L113.56-16.96Q114.92-19.52 117.38-20.90L117.38-20.90L117.38-20.90Q119.84-22.28 123.04-22.28L123.04-22.28L123.04-22.28Q126.16-22.28 128.54-20.92L128.54-20.92L128.54-20.92Q130.92-19.56 132.24-17.20L132.24-17.20L132.24-17.20Q133.56-14.84 133.56-11.88L133.56-11.88ZM129.80-12.36L129.80-12.36Q129.80-14.52 128.88-16.06L128.88-16.06L128.88-16.06Q127.96-17.60 126.38-18.40L126.38-18.40L126.38-18.40Q124.80-19.20 122.88-19.20L122.88-19.20L122.88-19.20Q120.08-19.20 118.12-17.38L118.12-17.38L118.12-17.38Q116.16-15.56 115.96-12.36L115.96-12.36L129.80-12.36Z" fill="#dec8f7"></path></g></g><style>text {
  font-size: 64px;
  font-family: Arial Black;
  dominant-baseline: central;
  text-anchor: middle;
}</style></svg>