<svg width="158px" height="77.6px" xmlns="http://www.w3.org/2000/svg" viewBox="171 36.2 158 77.6" style="background: rgb(255, 247, 232);" preserveAspectRatio="xMidYMid"><defs><filter id="editing-hole" x="-100%" y="-100%" width="300%" height="300%"><feFlood flood-color="#cccccc" result="black"></feFlood><feMorphology operator="dilate" radius="2" in="SourceGraphic" result="erode"></feMorphology><feGaussianBlur in="erode" stdDeviation="4" result="blur"></feGaussianBlur><feOffset in="blur" dx="2" dy="2" result="offset"></feOffset><feComposite operator="atop" in="offset" in2="black" result="merge"></feComposite><feComposite operator="in" in="merge" in2="SourceGraphic" result="inner-shadow"></feComposite></filter></defs><g filter="url(#editing-hole)"><g transform="translate(198.76000356674194, 83.50500011444092)"><path d="M5.04-13.32L5.04-13.32Q5.76-14.94 7.09-15.84L7.09-15.84L7.09-15.84Q8.43-16.74 10.35-16.74L10.35-16.74L10.35-13.92L9.63-13.92L9.63-13.92Q5.04-13.92 5.04-8.94L5.04-8.94L5.04 0L2.31 0L2.31-16.44L5.04-16.44L5.04-13.32ZM28.50-8.91L28.50-8.91Q28.50-8.16 28.41-7.29L28.41-7.29L15.27-7.29L15.27-7.29Q15.39-4.86 16.91-3.45L16.91-3.45L16.91-3.45Q18.42-2.04 20.61-2.04L20.61-2.04L20.61-2.04Q22.38-2.04 23.56-2.86L23.56-2.86L23.56-2.86Q24.75-3.69 25.23-5.07L25.23-5.07L28.17-5.07L28.17-5.07Q27.51-2.70 25.53-1.21L25.53-1.21L25.53-1.21Q23.55 0.27 20.61 0.27L20.61 0.27L20.61 0.27Q18.27 0.27 16.42-0.78L16.42-0.78L16.42-0.78Q14.58-1.83 13.53-3.76L13.53-3.76L13.53-3.76Q12.48-5.70 12.48-8.25L12.48-8.25L12.48-8.25Q12.48-10.80 13.50-12.72L13.50-12.72L13.50-12.72Q14.52-14.64 16.36-15.67L16.36-15.67L16.36-15.67Q18.21-16.71 20.61-16.71L20.61-16.71L20.61-16.71Q22.95-16.71 24.73-15.69L24.73-15.69L24.73-15.69Q26.52-14.67 27.51-12.90L27.51-12.90L27.51-12.90Q28.50-11.13 28.50-8.91L28.50-8.91ZM25.68-9.27L25.68-9.27Q25.68-10.89 24.99-12.04L24.99-12.04L24.99-12.04Q24.30-13.20 23.11-13.80L23.11-13.80L23.11-13.80Q21.93-14.40 20.49-14.40L20.49-14.40L20.49-14.40Q18.39-14.40 16.92-13.04L16.92-13.04L16.92-13.04Q15.45-11.67 15.30-9.27L15.30-9.27L25.68-9.27ZM37.89 0.27L37.89 0.27Q36 0.27 34.52-0.38L34.52-0.38L34.52-0.38Q33.03-1.02 32.16-2.17L32.16-2.17L32.16-2.17Q31.29-3.33 31.20-4.83L31.20-4.83L34.02-4.83L34.02-4.83Q34.14-3.54 35.17-2.73L35.17-2.73L35.17-2.73Q36.21-1.92 37.89-1.92L37.89-1.92L37.89-1.92Q39.48-1.92 40.36-2.63L40.36-2.63L40.36-2.63Q41.25-3.33 41.25-4.47L41.25-4.47L41.25-4.47Q41.25-5.55 40.29-6.08L40.29-6.08L40.29-6.08Q39.33-6.60 37.32-7.11L37.32-7.11L37.32-7.11Q35.49-7.59 34.35-8.07L34.35-8.07L34.35-8.07Q33.21-8.55 32.40-9.49L32.40-9.49L32.40-9.49Q31.59-10.44 31.59-12L31.59-12L31.59-12Q31.59-13.29 32.31-14.37L32.31-14.37L32.31-14.37Q33.03-15.45 34.39-16.08L34.39-16.08L34.39-16.08Q35.76-16.71 37.56-16.71L37.56-16.71L37.56-16.71Q40.29-16.71 41.97-15.33L41.97-15.33L41.97-15.33Q43.65-13.95 43.77-11.55L43.77-11.55L41.04-11.55L41.04-11.55Q40.95-12.90 40.00-13.71L40.00-13.71L40.00-13.71Q39.06-14.52 37.47-14.52L37.47-14.52L37.47-14.52Q35.97-14.52 35.12-13.86L35.12-13.86L35.12-13.86Q34.26-13.20 34.26-12.12L34.26-12.12L34.26-12.12Q34.26-11.28 34.80-10.75L34.80-10.75L34.80-10.75Q35.34-10.23 36.12-9.95L36.12-9.95L36.12-9.95Q36.90-9.66 38.34-9.24L38.34-9.24L38.34-9.24Q40.14-8.76 41.22-8.29L41.22-8.29L41.22-8.29Q42.30-7.83 43.08-6.93L43.08-6.93L43.08-6.93Q43.86-6.03 43.86-4.53L43.86-4.53L43.86-4.53Q43.86-3.15 43.13-2.07L43.13-2.07L43.13-2.07Q42.39-0.99 41.04-0.36L41.04-0.36L41.04-0.36Q39.69 0.27 37.89 0.27L37.89 0.27ZM46.74-8.25L46.74-8.25Q46.74-10.80 47.76-12.71L47.76-12.71L47.76-12.71Q48.78-14.61 50.59-15.66L50.59-15.66L50.59-15.66Q52.41-16.71 54.75-16.71L54.75-16.71L54.75-16.71Q57.78-16.71 59.75-15.24L59.75-15.24L59.75-15.24Q61.71-13.77 62.34-11.16L62.34-11.16L59.40-11.16L59.40-11.16Q58.98-12.66 57.77-13.53L57.77-13.53L57.77-13.53Q56.55-14.40 54.75-14.40L54.75-14.40L54.75-14.40Q52.41-14.40 50.97-12.79L50.97-12.79L50.97-12.79Q49.53-11.19 49.53-8.25L49.53-8.25L49.53-8.25Q49.53-5.28 50.97-3.66L50.97-3.66L50.97-3.66Q52.41-2.04 54.75-2.04L54.75-2.04L54.75-2.04Q56.55-2.04 57.75-2.88L57.75-2.88L57.75-2.88Q58.95-3.72 59.40-5.28L59.40-5.28L62.34-5.28L62.34-5.28Q61.68-2.76 59.70-1.24L59.70-1.24L59.70-1.24Q57.72 0.27 54.75 0.27L54.75 0.27L54.75 0.27Q52.41 0.27 50.59-0.78L50.59-0.78L50.59-0.78Q48.78-1.83 47.76-3.75L47.76-3.75L47.76-3.75Q46.74-5.67 46.74-8.25L46.74-8.25ZM77.82-16.44L80.55-16.44L80.55 0L77.82 0L77.82-2.43L77.82-2.43Q77.04-1.17 75.65-0.46L75.65-0.46L75.65-0.46Q74.25 0.24 72.57 0.24L72.57 0.24L72.57 0.24Q70.65 0.24 69.12-0.55L69.12-0.55L69.12-0.55Q67.59-1.35 66.70-2.94L66.70-2.94L66.70-2.94Q65.82-4.53 65.82-6.81L65.82-6.81L65.82-16.44L68.52-16.44L68.52-7.17L68.52-7.17Q68.52-4.74 69.75-3.44L69.75-3.44L69.75-3.44Q70.98-2.13 73.11-2.13L73.11-2.13L73.11-2.13Q75.30-2.13 76.56-3.48L76.56-3.48L76.56-3.48Q77.82-4.83 77.82-7.41L77.82-7.41L77.82-16.44ZM100.17-8.91L100.17-8.91Q100.17-8.16 100.08-7.29L100.08-7.29L86.94-7.29L86.94-7.29Q87.06-4.86 88.58-3.45L88.58-3.45L88.58-3.45Q90.09-2.04 92.28-2.04L92.28-2.04L92.28-2.04Q94.05-2.04 95.23-2.86L95.23-2.86L95.23-2.86Q96.42-3.69 96.90-5.07L96.90-5.07L99.84-5.07L99.84-5.07Q99.18-2.70 97.20-1.21L97.20-1.21L97.20-1.21Q95.22 0.27 92.28 0.27L92.28 0.27L92.28 0.27Q89.94 0.27 88.09-0.78L88.09-0.78L88.09-0.78Q86.25-1.83 85.20-3.76L85.20-3.76L85.20-3.76Q84.15-5.70 84.15-8.25L84.15-8.25L84.15-8.25Q84.15-10.80 85.17-12.72L85.17-12.72L85.17-12.72Q86.19-14.64 88.03-15.67L88.03-15.67L88.03-15.67Q89.88-16.71 92.28-16.71L92.28-16.71L92.28-16.71Q94.62-16.71 96.41-15.69L96.41-15.69L96.41-15.69Q98.19-14.67 99.18-12.90L99.18-12.90L99.18-12.90Q100.17-11.13 100.17-8.91L100.17-8.91ZM97.35-9.27L97.35-9.27Q97.35-10.89 96.66-12.04L96.66-12.04L96.66-12.04Q95.97-13.20 94.78-13.80L94.78-13.80L94.78-13.80Q93.60-14.40 92.16-14.40L92.16-14.40L92.16-14.40Q90.06-14.40 88.59-13.04L88.59-13.04L88.59-13.04Q87.12-11.67 86.97-9.27L86.97-9.27L97.35-9.27Z" fill="#dec8f7"></path></g></g><style>text {
  font-size: 64px;
  font-family: Arial Black;
  dominant-baseline: central;
  text-anchor: middle;
}</style></svg>