<svg width="295.9812866210937px" height="134px" xmlns="http://www.w3.org/2000/svg" viewBox="102.00935668945314 8 295.9812866210937 134" style="background: rgb(255, 247, 232);" preserveAspectRatio="xMidYMid"><defs><filter id="editing-hole" x="-100%" y="-100%" width="300%" height="300%"><feFlood flood-color="#000000" result="black"></feFlood><feMorphology operator="dilate" radius="2" in="SourceGraphic" result="erode"></feMorphology><feGaussianBlur in="erode" stdDeviation="4" result="blur"></feGaussianBlur><feOffset in="blur" dx="2" dy="2" result="offset"></feOffset><feComposite operator="atop" in="offset" in2="black" result="merge"></feComposite><feComposite operator="in" in="merge" in2="SourceGraphic" result="inner-shadow"></feComposite></filter></defs><g filter="url(#editing-hole)"><g transform="translate(147.5199842453003, 92.01000022888184)"><path d="M10.08-26.64L10.08-26.64Q11.52-29.88 14.19-31.68L14.19-31.68L14.19-31.68Q16.86-33.48 20.70-33.48L20.70-33.48L20.70-27.84L19.26-27.84L19.26-27.84Q10.08-27.84 10.08-17.88L10.08-17.88L10.08 0L4.62 0L4.62-32.88L10.08-32.88L10.08-26.64ZM57-17.82L57-17.82Q57-16.32 56.82-14.58L56.82-14.58L30.54-14.58L30.54-14.58Q30.78-9.72 33.81-6.90L33.81-6.90L33.81-6.90Q36.84-4.08 41.22-4.08L41.22-4.08L41.22-4.08Q44.76-4.08 47.13-5.73L47.13-5.73L47.13-5.73Q49.50-7.38 50.46-10.14L50.46-10.14L56.34-10.14L56.34-10.14Q55.02-5.40 51.06-2.43L51.06-2.43L51.06-2.43Q47.10 0.54 41.22 0.54L41.22 0.54L41.22 0.54Q36.54 0.54 32.85-1.56L32.85-1.56L32.85-1.56Q29.16-3.66 27.06-7.53L27.06-7.53L27.06-7.53Q24.96-11.40 24.96-16.50L24.96-16.50L24.96-16.50Q24.96-21.60 27-25.44L27-25.44L27-25.44Q29.04-29.28 32.73-31.35L32.73-31.35L32.73-31.35Q36.42-33.42 41.22-33.42L41.22-33.42L41.22-33.42Q45.90-33.42 49.47-31.38L49.47-31.38L49.47-31.38Q53.04-29.34 55.02-25.80L55.02-25.80L55.02-25.80Q57-22.26 57-17.82L57-17.82ZM51.36-18.54L51.36-18.54Q51.36-21.78 49.98-24.09L49.98-24.09L49.98-24.09Q48.60-26.40 46.23-27.60L46.23-27.60L46.23-27.60Q43.86-28.80 40.98-28.80L40.98-28.80L40.98-28.80Q36.78-28.80 33.84-26.07L33.84-26.07L33.84-26.07Q30.90-23.34 30.60-18.54L30.60-18.54L51.36-18.54ZM75.78 0.54L75.78 0.54Q72 0.54 69.03-0.75L69.03-0.75L69.03-0.75Q66.06-2.04 64.32-4.35L64.32-4.35L64.32-4.35Q62.58-6.66 62.40-9.66L62.40-9.66L68.04-9.66L68.04-9.66Q68.28-7.08 70.35-5.46L70.35-5.46L70.35-5.46Q72.42-3.84 75.78-3.84L75.78-3.84L75.78-3.84Q78.96-3.84 80.73-5.25L80.73-5.25L80.73-5.25Q82.50-6.66 82.50-8.94L82.50-8.94L82.50-8.94Q82.50-11.10 80.58-12.15L80.58-12.15L80.58-12.15Q78.66-13.20 74.64-14.22L74.64-14.22L74.64-14.22Q70.98-15.18 68.70-16.14L68.70-16.14L68.70-16.14Q66.42-17.10 64.80-18.99L64.80-18.99L64.80-18.99Q63.18-20.88 63.18-24L63.18-24L63.18-24Q63.18-26.58 64.62-28.74L64.62-28.74L64.62-28.74Q66.06-30.90 68.79-32.16L68.79-32.16L68.79-32.16Q71.52-33.42 75.12-33.42L75.12-33.42L75.12-33.42Q80.58-33.42 83.94-30.66L83.94-30.66L83.94-30.66Q87.30-27.90 87.54-23.10L87.54-23.10L82.08-23.10L82.08-23.10Q81.90-25.80 80.01-27.42L80.01-27.42L80.01-27.42Q78.12-29.04 74.94-29.04L74.94-29.04L74.94-29.04Q71.94-29.04 70.23-27.72L70.23-27.72L70.23-27.72Q68.52-26.40 68.52-24.24L68.52-24.24L68.52-24.24Q68.52-22.56 69.60-21.51L69.60-21.51L69.60-21.51Q70.68-20.46 72.24-19.89L72.24-19.89L72.24-19.89Q73.80-19.32 76.68-18.48L76.68-18.48L76.68-18.48Q80.28-17.52 82.44-16.59L82.44-16.59L82.44-16.59Q84.60-15.66 86.16-13.86L86.16-13.86L86.16-13.86Q87.72-12.06 87.72-9.06L87.72-9.06L87.72-9.06Q87.72-6.30 86.25-4.14L86.25-4.14L86.25-4.14Q84.78-1.98 82.08-0.72L82.08-0.72L82.08-0.72Q79.38 0.54 75.78 0.54L75.78 0.54ZM93.48-16.50L93.48-16.50Q93.48-21.60 95.52-25.41L95.52-25.41L95.52-25.41Q97.56-29.22 101.19-31.32L101.19-31.32L101.19-31.32Q104.82-33.42 109.50-33.42L109.50-33.42L109.50-33.42Q115.56-33.42 119.49-30.48L119.49-30.48L119.49-30.48Q123.42-27.54 124.68-22.32L124.68-22.32L118.80-22.32L118.80-22.32Q117.96-25.32 115.53-27.06L115.53-27.06L115.53-27.06Q113.10-28.80 109.50-28.80L109.50-28.80L109.50-28.80Q104.82-28.80 101.94-25.59L101.94-25.59L101.94-25.59Q99.06-22.38 99.06-16.50L99.06-16.50L99.06-16.50Q99.06-10.56 101.94-7.32L101.94-7.32L101.94-7.32Q104.82-4.08 109.50-4.08L109.50-4.08L109.50-4.08Q113.10-4.08 115.50-5.76L115.50-5.76L115.50-5.76Q117.90-7.44 118.80-10.56L118.80-10.56L124.68-10.56L124.68-10.56Q123.36-5.52 119.40-2.49L119.40-2.49L119.40-2.49Q115.44 0.54 109.50 0.54L109.50 0.54L109.50 0.54Q104.82 0.54 101.19-1.56L101.19-1.56L101.19-1.56Q97.56-3.66 95.52-7.50L95.52-7.50L95.52-7.50Q93.48-11.34 93.48-16.50L93.48-16.50ZM155.64-32.88L161.10-32.88L161.10 0L155.64 0L155.64-4.86L155.64-4.86Q154.08-2.34 151.29-0.93L151.29-0.93L151.29-0.93Q148.50 0.48 145.14 0.48L145.14 0.48L145.14 0.48Q141.30 0.48 138.24-1.11L138.24-1.11L138.24-1.11Q135.18-2.70 133.41-5.88L133.41-5.88L133.41-5.88Q131.64-9.06 131.64-13.62L131.64-13.62L131.64-32.88L137.04-32.88L137.04-14.34L137.04-14.34Q137.04-9.48 139.50-6.87L139.50-6.87L139.50-6.87Q141.96-4.26 146.22-4.26L146.22-4.26L146.22-4.26Q150.60-4.26 153.12-6.96L153.12-6.96L153.12-6.96Q155.64-9.66 155.64-14.82L155.64-14.82L155.64-32.88ZM200.34-17.82L200.34-17.82Q200.34-16.32 200.16-14.58L200.16-14.58L173.88-14.58L173.88-14.58Q174.12-9.72 177.15-6.90L177.15-6.90L177.15-6.90Q180.18-4.08 184.56-4.08L184.56-4.08L184.56-4.08Q188.10-4.08 190.47-5.73L190.47-5.73L190.47-5.73Q192.84-7.38 193.80-10.14L193.80-10.14L199.68-10.14L199.68-10.14Q198.36-5.40 194.40-2.43L194.40-2.43L194.40-2.43Q190.44 0.54 184.56 0.54L184.56 0.54L184.56 0.54Q179.88 0.54 176.19-1.56L176.19-1.56L176.19-1.56Q172.50-3.66 170.40-7.53L170.40-7.53L170.40-7.53Q168.30-11.40 168.30-16.50L168.30-16.50L168.30-16.50Q168.30-21.60 170.34-25.44L170.34-25.44L170.34-25.44Q172.38-29.28 176.07-31.35L176.07-31.35L176.07-31.35Q179.76-33.42 184.56-33.42L184.56-33.42L184.56-33.42Q189.24-33.42 192.81-31.38L192.81-31.38L192.81-31.38Q196.38-29.34 198.36-25.80L198.36-25.80L198.36-25.80Q200.34-22.26 200.34-17.82L200.34-17.82ZM194.70-18.54L194.70-18.54Q194.70-21.78 193.32-24.09L193.32-24.09L193.32-24.09Q191.94-26.40 189.57-27.60L189.57-27.60L189.57-27.60Q187.20-28.80 184.32-28.80L184.32-28.80L184.32-28.80Q180.12-28.80 177.18-26.07L177.18-26.07L177.18-26.07Q174.24-23.34 173.94-18.54L173.94-18.54L194.70-18.54Z" fill="#dec8f7"></path></g></g><style>text {
  font-size: 64px;
  font-family: Arial Black;
  dominant-baseline: central;
  text-anchor: middle;
}</style></svg>